{"title":"Happy New Year(2014) 1CD DvDScr x264 {GreatPalash}","uid":11282824,"size":672727402,"categoryP":"video","categoryS":"movies","magnet":"?xt=urn:btih:07b8dae44c0f8566d26e857b57e29b21114c5fb3&amp;dn=Happy+New+Year%282014%29+1CD+DvDScr+x264+%7BGreatPalash%7D&amp;tr=udp%3A%2F%2Ftracker.openbittorrent.com%3A80&amp;tr=udp%3A%2F%2Fopen.demonii.com%3A1337&amp;tr=udp%3A%2F%2Ftracker.coppersurfer.tk%3A6969&amp;tr=udp%3A%2F%2Fexodus.desync.com%3A6969","seeders":1,"leechers":0,"uploader":"Palash995","files":-1,"time":1414198787,"description":"Happy New Year (2014)\n1CD DvDScr x264 NON-RETAIL [DTRC] {GreatPalash}\n &lt;a href=&quot;\nhttp://s26.postimg.org/5ejndvt7t/XAI6k_CS.png&quot; rel=&quot;nofollow&quot; target=&quot;_NEW&quot;&gt;\nhttp://s26.postimg.org/5ejndvt7t/XAI6k_CS.png&lt;/a&gt;\n\nScreenshots\n &lt;a href=&quot;\nhttp://s26.postimg.org/fd4m0d2nd/7c11416ecd768ef9.png&quot; rel=&quot;nofollow&quot; target=&quot;_NEW&quot;&gt;\nhttp://s26.postimg.org/fd4m0d2nd/7c11416ecd768ef9.png&lt;/a&gt; &lt;a href=&quot;\nhttp://s26.postimg.org/xm2736svd/33de45e9cfc3507c.png&quot; rel=&quot;nofollow&quot; target=&quot;_NEW&quot;&gt;\nhttp://s26.postimg.org/xm2736svd/33de45e9cfc3507c.png&lt;/a&gt; &lt;a href=&quot;\nhttp://s26.postimg.org/aaioru3zd/40b17601ef3cd764.png&quot; rel=&quot;nofollow&quot; target=&quot;_NEW&quot;&gt;\nhttp://s26.postimg.org/aaioru3zd/40b17601ef3cd764.png&lt;/a&gt; &lt;a href=&quot;\nhttp://s26.postimg.org/84jsjlb55/50b33d9448611ffb.png&quot; rel=&quot;nofollow&quot; target=&quot;_NEW&quot;&gt;\nhttp://s26.postimg.org/84jsjlb55/50b33d9448611ffb.png&lt;/a&gt; &lt;a href=&quot;\nhttp://s26.postimg.org/3y3ji00x5/50d84d5c3d92c57f.png&quot; rel=&quot;nofollow&quot; target=&quot;_NEW&quot;&gt;\nhttp://s26.postimg.org/3y3ji00x5/50d84d5c3d92c57f.png&lt;/a&gt; &lt;a href=&quot;\nhttp://s26.postimg.org/rdlgncko9/64fd1d0b3776926e.png&quot; rel=&quot;nofollow&quot; target=&quot;_NEW&quot;&gt;\nhttp://s26.postimg.org/rdlgncko9/64fd1d0b3776926e.png&lt;/a&gt; &lt;a href=&quot;\nhttp://s26.postimg.org/j9dcily95/455d77660204e386.png&quot; rel=&quot;nofollow&quot; target=&quot;_NEW&quot;&gt;\nhttp://s26.postimg.org/j9dcily95/455d77660204e386.png&lt;/a&gt; &lt;a href=&quot;\nhttp://s26.postimg.org/pbkz93mp5/763bcf0f59f93093.png&quot; rel=&quot;nofollow&quot; target=&quot;_NEW&quot;&gt;\nhttp://s26.postimg.org/pbkz93mp5/763bcf0f59f93093.png&lt;/a&gt; &lt;a href=&quot;\nhttp://s26.postimg.org/5i8vge9bd/1006694a61df7394.png&quot; rel=&quot;nofollow&quot; target=&quot;_NEW&quot;&gt;\nhttp://s26.postimg.org/5i8vge9bd/1006694a61df7394.png&lt;/a&gt; &lt;a href=&quot;\nhttp://s26.postimg.org/ufc8xaxt5/1327764bc02c46a4.png&quot; rel=&quot;nofollow&quot; target=&quot;_NEW&quot;&gt;\nhttp://s26.postimg.org/ufc8xaxt5/1327764bc02c46a4.png&lt;/a&gt; &lt;a href=&quot;\nhttp://s26.postimg.org/6lszsctyh/6926699bce93bd28.png&quot; rel=&quot;nofollow&quot; target=&quot;_NEW&quot;&gt;\nhttp://s26.postimg.org/6lszsctyh/6926699bce93bd28.png&lt;/a&gt; &lt;a href=&quot;\nhttp://s26.postimg.org/xapc461t5/bb52f897b147b9bf.png&quot; rel=&quot;nofollow&quot; target=&quot;_NEW&quot;&gt;\nhttp://s26.postimg.org/xapc461t5/bb52f897b147b9bf.png&lt;/a&gt; &lt;a href=&quot;\nhttp://s26.postimg.org/i4nvqz161/d426db30662bdd18.png&quot; rel=&quot;nofollow&quot; target=&quot;_NEW&quot;&gt;\nhttp://s26.postimg.org/i4nvqz161/d426db30662bdd18.png&lt;/a&gt; &lt;a href=&quot;\nhttp://s26.postimg.org/pfespcs6h/fa505c314299f4e3.png&quot; rel=&quot;nofollow&quot; target=&quot;_NEW&quot;&gt;\nhttp://s26.postimg.org/pfespcs6h/fa505c314299f4e3.png&lt;/a&gt; &lt;a href=&quot;\nhttp://s26.postimg.org/xov9hibah/fb03d090440772e7.png&quot; rel=&quot;nofollow&quot; target=&quot;_NEW&quot;&gt;\nhttp://s26.postimg.org/xov9hibah/fb03d090440772e7.png&lt;/a&gt;\n\n\nGeneral\nComplete name                            : Happy New Year(2014) 1CD DvDScr x264 NON-RETAIL [DTRC] {GreatPalash}.mp4\nFormat                                   : MPEG-4\nFormat profile                           : Base Media\nCodec ID                                 : isom\nFile size                                : 639 MiB\nDuration                                 : 3h 2mn\nOverall bit rate                         : 490 Kbps\n\nVideo\nID                                       : 1\nFormat                                   : AVC\nFormat/Info                              : Advanced Video Codec\nFormat profile                           : &lt;a class=&quot;__cf_email__&quot; href=&quot;/cdn-cgi/l/email-protection&quot; data-cfemail=&quot;94d9f5fdfad4d8a7baa5&quot;&gt;[email&amp;#160;protected]&lt;/a&gt;&lt;script cf-hash='f9e31' type=&quot;text/javascript&quot;&gt;\n/* &lt;![CDATA[ */!function(){try{var t=&quot;currentScript&quot;in document?document.currentScript:function(){for(var t=document.getElementsByTagName(&quot;script&quot;),e=t.length;e--;)if(t[e].getAttribute(&quot;cf-hash&quot;))return t[e]}();if(t&amp;&amp;t.previousSibling){var e,r,n,i,c=t.previousSibling,a=c.getAttribute(&quot;data-cfemail&quot;);if(a){for(e=&quot;&quot;,r=parseInt(a.substr(0,2),16),n=2;a.length-n;n+=2)i=parseInt(a.substr(n,2),16)^r,e+=String.fromCharCode(i);e=document.createTextNode(e),c.parentNode.replaceChild(e,c)}}}catch(u){}}();/* ]]&gt; */&lt;/script&gt;\nFormat settings, CABAC                   : Yes\nFormat settings, ReFrames                : 3 frames\nCodec ID                                 : avc1\nCodec ID/Info                            : Advanced Video Coding\nDuration                                 : 3h 2mn\nBit rate                                 : 406 Kbps\nMaximum bit rate                         : 4 266 Kbps\nWidth                                    : 640 pixels\nHeight                                   : 272 pixels\nDisplay aspect ratio                     : 2.35:1\nFrame rate mode                          : Constant\nFrame rate                               : 29.970 fps\nColor space                              : YUV\nChroma subsampling                       : 4:2:0\nBit depth                                : 8 bits\nScan type                                : Progressive\nBits/(Pixel*Frame)                       : 0.078\nStream size                              : 531 MiB (83%)\nWriting library                          : x264 core 142 r2431 ac76440\nEncoding settings                        : cabac=1 / ref=3 / deblock=1:-1:-1 / analyse=0x1:0x111 / me=hex / subme=6 / psy=1 / psy_rd=1.00:0.15 / mixed_ref=1 / me_range=16 / chroma_me=1 / trellis=2 / 8x8dct=0 / cqm=0 / deadzone=21,11 / fast_pskip=1 / chroma_qp_offset=-3 / threads=48 / lookahead_threads=2 / sliced_threads=0 / nr=0 / decimate=1 / interlaced=0 / bluray_compat=0 / constrained_intra=0 / bframes=3 / b_pyramid=0 / b_adapt=2 / b_bias=0 / direct=2 / weightb=1 / open_gop=0 / weightp=2 / keyint=288 / keyint_min=28 / scenecut=48 / intra_refresh=0 / rc_lookahead=48 / rc=abr / mbtree=1 / bitrate=406 / ratetol=1.0 / qcomp=0.60 / qpmin=0 / qpmax=69 / qpstep=4 / vbv_maxrate=14000 / vbv_bufsize=14000 / nal_hrd=none / filler=0 / ip_ratio=1.40 / aq=1:1.00\n\nAudio\nID                                       : 2\nFormat                                   : MPEG Audio\nFormat version                           : Version 1\nFormat profile                           : Layer 3\nMode                                     : Joint stereo\nMode extension                           : MS Stereo\nCodec ID                                 : 6B\nDuration                                 : 3h 2mn\nBit rate mode                            : Constant\nBit rate                                 : 80.0 Kbps\nMaximum bit rate                         : 83.5 Kbps\nChannel(s)                               : 2 channels\nSampling rate                            : 32.0 KHz\nCompression mode                         : Lossy\nStream size                              : 104 MiB (16%)\nWriting library                          : LAME3.99r\nEncoding settings                        : -m j -V 4 -q 2 -lowpass 13.5 -b 80\nEncoded date                             : UTC 2014-10-25 08:37:10\nTagged date                              : UTC 2014-10-25 08:37:12\n\n\nDON'T FORGET TO SAY THANKS AND ADD REP","torrent":{"xt":"urn:btih:07b8dae44c0f8566d26e857b57e29b21114c5fb3","amp;dn":"Happy+New+Year%282014%29+1CD+DvDScr+x264+%7BGreatPalash%7D","amp;tr":["udp%3A%2F%2Ftracker.openbittorrent.com%3A80","udp%3A%2F%2Fopen.demonii.com%3A1337","udp%3A%2F%2Ftracker.coppersurfer.tk%3A6969","udp%3A%2F%2Fexodus.desync.com%3A6969"],"infoHash":"07b8dae44c0f8566d26e857b57e29b21114c5fb3","infoHashBuffer":{"type":"Buffer","data":[7,184,218,228,76,15,133,102,210,110,133,123,87,226,155,33,17,76,95,179]},"announce":[],"urlList":[]}}